<?xml version="1.0" standalone="no"?>
<!DOCTYPE svg PUBLIC "-//W3C//DTD SVG 20010904//EN"
 "http://www.w3.org/TR/2001/REC-SVG-20010904/DTD/svg10.dtd">
<svg version="1.0" xmlns="http://www.w3.org/2000/svg"
 width="4000.000000pt" height="2500.000000pt" viewBox="0 0 4000.000000 2500.000000"
 preserveAspectRatio="xMidYMid meet">
<metadata>
Created by potrace 1.16, written by Peter Selinger 2001-2019
</metadata>
<g transform="translate(0.000000,2500.000000) scale(0.100000,-0.100000)"
fill="#000000" stroke="none">
<path d="M19539 23166 c-2 -2 -71 -7 -152 -11 -81 -3 -158 -8 -170 -10 -12 -2
-67 -6 -121 -10 -55 -4 -109 -8 -120 -10 -12 -2 -52 -6 -91 -10 -61 -5 -216
-24 -340 -41 -453 -61 -998 -175 -1475 -310 -1424 -402 -2831 -1156 -3965
-2123 -424 -362 -874 -812 -1236 -1236 -425 -498 -850 -1110 -1184 -1705 -129
-230 -378 -735 -482 -980 -414 -966 -689 -2000 -798 -3000 -8 -80 -17 -163
-20 -185 -2 -22 -7 -80 -11 -130 -3 -49 -7 -100 -9 -112 -27 -173 -27 -1403 0
-1576 2 -12 6 -62 9 -112 4 -49 9 -108 11 -130 3 -22 9 -85 15 -140 239 -2238
1200 -4356 2740 -6040 166 -181 587 -598 760 -751 917 -814 1922 -1445 3026
-1902 768 -318 1538 -536 2392 -676 l22 -3 0 3728 0 3729 -1355 0 -1355 0 0
1545 0 1545 1355 0 1355 0 0 1303 c0 1285 3 1442 35 1727 138 1232 674 2200
1545 2789 556 376 1179 584 1972 657 207 19 748 22 1058 5 534 -29 1187 -96
1673 -172 l137 -22 0 -1313 0 -1314 -707 0 c-753 0 -907 -6 -1120 -45 -722
-134 -1157 -610 -1243 -1360 -6 -56 -10 -497 -10 -1172 l0 -1083 1475 0 c1398
0 1475 -1 1475 -17 0 -19 -456 -3011 -465 -3050 l-5 -23 -1240 0 -1240 0 -2
-3730 c-3 -3725 -3 -3729 17 -3725 11 3 88 16 170 30 782 136 1568 369 2330
692 236 100 714 333 940 457 1649 909 3032 2234 4002 3836 807 1331 1319 2847
1478 4375 8 83 17 166 19 185 3 19 8 85 11 145 4 61 8 120 10 133 24 153 24
1232 0 1384 -2 13 -6 70 -10 128 -3 58 -8 116 -10 130 -2 14 -7 57 -10 95 -29
334 -100 793 -181 1175 -352 1651 -1086 3183 -2159 4505 -425 523 -1013 1112
-1550 1550 -1191 973 -2625 1692 -4130 2069 -517 130 -1117 232 -1585 271 -41
4 -85 8 -98 10 -12 2 -75 7 -140 10 -64 4 -128 9 -142 12 -29 6 -1094 15
-1101 9z"/>
</g>
</svg>
